# xmcd
#
# Track frame offsets:
# 150
# 23617
# 42162
# 62392
# 87937
# 123672
# 143437
# 170952
# 181345
# 198180
# 219635
# 235527
# 254047
#
# Disc length: 3770 seconds
#
#
# Revision: 1
# Processed by: cddbd v1.5.2PL0 Copyright (c) Steve Scherf et al.
# Submitted via: FreeRIP 2.70 
#
DISCID=b00eb80d
DTITLE=Yonder Mountain String Band - The Show
DYEAR=2009
DGENRE=Bluegrass
TTITLE0=Out Of The Blue
TTITLE1=Complicated
TTITLE2=Fingerprint
TTITLE3=Dreams
TTITLE4=Honestly
TTITLE5=Steep Grade, Sharp Curves
TTITLE6=Isolate
TTITLE7=In The Seam
TTITLE8=Belle Parker
TTITLE9=Criminal
TTITLE10=Rain Still Falls
TTITLE11=Fine Excuses
TTITLE12=Casualty
EXTD=
EXTT0=
EXTT1=
EXTT2=
EXTT3=
EXTT4=
EXTT5=
EXTT6=
EXTT7=
EXTT8=
EXTT9=
EXTT10=
EXTT11=
EXTT12=
PLAYORDER=
